<svg xmlns="http://www.w3.org/2000/svg" xmlns:xlink="http://www.w3.org/1999/xlink" version="1.1" x="0px" y="0px" viewBox="0 0 48 60" enable-background="new 0 0 48 48" xml:space="preserve"><path fill="#ffffff" d="M46.5,28.9c3.2-8-3.2-14.1-8.4-17l5.4-5.4l0,3.1l2.8,0l0.1-8l-8,0.1l0,2.8l3.1,0l-5.4,5.4  c-2.9-5.2-9-11.7-17-8.4C10.8,4.8,2.9,0.8,2.8,0.8L0.7,4.9c0.1,0,0.7,0.4,1.7,0.8l11.4,26.6L12,34l-3.8,0.3l0.1,1.9l3.8-0.3  l-0.3,3.8l1.9,0.1L14,36l1.7-1.7l26.6,11.3c0.4,1,0.7,1.6,0.8,1.7l4.2-2.2C47.2,45.1,43.1,37.2,46.5,28.9z M5.9,6.8  c3.8,0.9,9.2,1.4,14.9-0.9c6.3-2.6,10.7,5.4,11.7,7.6L15.9,30.1L5.9,6.8z M42.1,27.2c-2.3,5.7-1.8,11.1-0.9,14.9l-23.4-9.9  l16.7-16.7C36.7,16.5,44.6,20.9,42.1,27.2z"/><text x="0" y="63" fill="#000000" font-size="5px" font-weight="bold" font-family="'Helvetica Neue', Helvetica, Arial-Unicode, Arial, Sans-serif">Created by Creative Stall</text><text x="0" y="68" fill="#000000" font-size="5px" font-weight="bold" font-family="'Helvetica Neue', Helvetica, Arial-Unicode, Arial, Sans-serif">from the Noun Project</text></svg>