<svg xmlns:dc="http://purl.org/dc/elements/1.1/" xmlns:cc="http://creativecommons.org/ns#" xmlns:rdf="http://www.w3.org/1999/02/22-rdf-syntax-ns#" xmlns:svg="http://www.w3.org/2000/svg" xmlns="http://www.w3.org/2000/svg" xmlns:sodipodi="http://sodipodi.sourceforge.net/DTD/sodipodi-0.dtd" xmlns:inkscape="http://www.inkscape.org/namespaces/inkscape" version="1.1" viewBox="0 0 100 100" x="0px" y="0px"><path style="opacity:1;vector-effect:none;fill:#ffffff;fill-opacity:1;stroke:none;stroke-width:0.10235414;stroke-linecap:butt;stroke-linejoin:miter;stroke-miterlimit:4;stroke-dasharray:none;stroke-dashoffset:0;stroke-opacity:1;marker:none" d="m 5.3866938,5.7381955 a 6.5918283,6.6094322 45 0 0 -4.5732852,1.93869 6.5918283,6.6094322 45 0 0 -0.0127944,9.3345965 6.5918283,6.6094322 45 0 0 2.0614122,1.392221 L 43.422518,58.963887 45.290072,57.096129 14.55087,26.356927 c 12.497134,5.741351 36.139817,-1.206448 50.743194,10.735415 l 5.064791,-5.06479 C 52.955374,16.724173 27.106653,21.805443 11.279939,15.452014 A 6.5918283,6.6094322 45 0 0 10.147799,7.6640911 6.5918283,6.6094322 45 0 0 5.3866938,5.7381955 Z M 74.83603,36.505034 69.771342,41.569722 C 81.712284,56.173406 74.765098,79.815269 80.50604,92.3122 L 49.767452,61.573509 47.899693,63.441165 88.459367,104.00074 a 6.5918283,6.6094322 45 0 0 1.391916,2.06172 6.5918283,6.6094322 45 0 0 9.335205,-0.0124 6.5918283,6.6094322 45 0 0 0.01238,-9.335213 A 6.5918283,6.6094322 45 0 0 91.41115,95.58394 C 85.057217,79.757235 90.138383,53.908514 74.83603,36.505034 Z"/><path d="m 20.282293,94.728064 3.379836,-3.379836 1.123542,-6.628454 -2.593859,-2.593859 -6.628455,1.123541 -3.379734,3.379734 6.627534,1.331218 0.14002,0.139919 z" style="opacity:1;vector-effect:none;fill:#ffffff;fill-opacity:1;stroke:none;stroke-width:0.10235412;stroke-linecap:butt;stroke-linejoin:miter;stroke-miterlimit:4;stroke-dasharray:none;stroke-dashoffset:0;stroke-opacity:1;marker:none"/><path style="opacity:1;vector-effect:none;fill:#ffffff;fill-opacity:1;stroke:none;stroke-width:0.10235412;stroke-linecap:butt;stroke-linejoin:miter;stroke-miterlimit:4;stroke-dasharray:none;stroke-dashoffset:0;stroke-opacity:1;marker:none" d="m 24.702764,90.307594 3.379734,-3.379939 1.123643,-6.628352 -2.593961,-2.593961 -6.628352,1.123644 -3.379836,3.379835 6.627534,1.331117 0.14002,0.14002 z"/><rect style="opacity:1;vector-effect:none;fill:#ffffff;fill-opacity:1;stroke:none;stroke-width:0.10235415;stroke-linecap:butt;stroke-linejoin:miter;stroke-miterlimit:4;stroke-dasharray:none;stroke-dashoffset:0;stroke-opacity:1;marker:none" width="79.369888" height="3.1729274" x="-31.848938" y="73.977386" transform="rotate(-45)"/><path style="opacity:1;vector-effect:none;fill:#ffffff;fill-opacity:1;stroke:none;stroke-width:0.10235414;stroke-linecap:butt;stroke-linejoin:miter;stroke-miterlimit:4;stroke-dasharray:none;stroke-dashoffset:0;stroke-opacity:1;marker:none" d="M 81.840124,14.257439 100.19294,7.0019629 92.937356,25.354777 85.319346,21.875555 Z"/><path d="m 29.123133,85.887225 3.379835,-3.379938 -0.103377,-7.855374 -0.14002,-0.140021 -7.855374,-0.103378 -3.379837,3.379734 6.627636,1.331218 0.14002,0.140021 z" style="opacity:1;vector-effect:none;fill:#ffffff;fill-opacity:1;stroke:none;stroke-width:0.10235412;stroke-linecap:butt;stroke-linejoin:miter;stroke-miterlimit:4;stroke-dasharray:none;stroke-dashoffset:0;stroke-opacity:1;marker:none"/></svg>